HIERARCHY
ROOT Hips
{
	OFFSET -3.958830 18.904000 13.208200
	CHANNELS 6 Xposition Yposition Zposition Zrotation Yrotation Xrotation 
	JOINT LHipJoint
	{
		OFFSET 0.000000 0.000000 0.000000
		CHANNELS 3 Zrotation Yrotation Xrotation
		JOINT LeftUpLeg
		{
			OFFSET 1.800000 -1.400000 0.085000
			CHANNELS 3 Zrotation Yrotation Xrotation
			JOINT LeftLeg
			{
				OFFSET 2.215000 -6.000000 0.000000
				CHANNELS 3 Zrotation Yrotation Xrotation
				JOINT LeftFoot
				{
					OFFSET 2.500000 -6.900000 0.000000
					CHANNELS 3 Zrotation Yrotation Xrotation
					JOINT LeftToeBase
					{
						OFFSET 0.200000 -0.500000 1.950000
						CHANNELS 3 Zrotation Yrotation Xrotation
						End Site
						{
							OFFSET 0.000000 0.000000 0.000000
						}
					}
				}
			}
		}
	}
	JOINT RHipJoint
	{
		OFFSET 0.000000 0.000000 0.000000
		CHANNELS 3 Zrotation Yrotation Xrotation
		JOINT RightUpLeg
		{
			OFFSET -1.800000 -1.400000 0.085000
			CHANNELS 3 Zrotation Yrotation Xrotation
			JOINT RightLeg
			{
				OFFSET -2.215000 -6.000000 0.000000
				CHANNELS 3 Zrotation Yrotation Xrotation
				JOINT RightFoot
				{
					OFFSET -2.500000 -6.900000 0.000000
					CHANNELS 3 Zrotation Yrotation Xrotation
					JOINT RightToeBase
					{
						OFFSET -0.200000 -0.500000 1.950000
						CHANNELS 3 Zrotation Yrotation Xrotation
						End Site
						{
							OFFSET 0.000000 0.000000 0.000000
						}
					}
				}
			}
		}
	}
	JOINT LowerBack
	{
		OFFSET 0.000000 0.000000 0.000000
		CHANNELS 3 Zrotation Yrotation Xrotation
		JOINT Spine
		{
			OFFSET -0.087000 1.940000 -0.288900
			CHANNELS 3 Zrotation Yrotation Xrotation
			JOINT Spine1
			{
				OFFSET 0.000000 1.950000 0.060000
				CHANNELS 3 Zrotation Yrotation Xrotation
				JOINT Neck
				{
					OFFSET 0.000000 0.000000 0.000000
					CHANNELS 3 Zrotation Yrotation Xrotation
					JOINT Neck1
					{
						OFFSET 0.000000 1.600000 0.340000
						CHANNELS 3 Zrotation Yrotation Xrotation
						JOINT Head
						{
							OFFSET 0.000000 1.667000 -0.240000
							CHANNELS 3 Zrotation Yrotation Xrotation
							End Site
							{
								OFFSET 0.000000 0.000000 0.000000
							}
						}
					}
				}
				JOINT LeftShoulder
				{
					OFFSET 0.000000 0.000000 0.000000
					CHANNELS 3 Zrotation Yrotation Xrotation
					JOINT LeftArm
					{
						OFFSET 2.700000 1.550000 -0.730000
						CHANNELS 3 Zrotation Yrotation Xrotation
						JOINT LeftForeArm
						{
							OFFSET 5.450000 0.000000 0.000000
							CHANNELS 3 Zrotation Yrotation Xrotation
							JOINT LeftHand
							{
								OFFSET 3.450000 0.000000 0.000000
								CHANNELS 3 Zrotation Yrotation Xrotation
								JOINT LeftHandIndex1
								{
									OFFSET 0.750000 0.000000 0.000000
									CHANNELS 3 Zrotation Yrotation Xrotation
									End Site
									{
										OFFSET 0.000000 0.000000 0.000000
									}
								}
							}
						}
					}
				}
				JOINT RightShoulder
				{
					OFFSET 0.000000 0.000000 0.000000
					CHANNELS 3 Zrotation Yrotation Xrotation
					JOINT RightArm
					{
						OFFSET -2.700000 1.550000 -0.730000
						CHANNELS 3 Zrotation Yrotation Xrotation
						JOINT RightForeArm
						{
							OFFSET -5.450000 0.000000 0.000000
							CHANNELS 3 Zrotation Yrotation Xrotation
							JOINT RightHand
							{
								OFFSET -3.450000 0.000000 0.000000
								CHANNELS 3 Zrotation Yrotation Xrotation
								JOINT RightHandIndex1
								{
									OFFSET -0.750000 0.000000 0.000000
									CHANNELS 3 Zrotation Yrotation Xrotation
									End Site
									{
										OFFSET 0.000000 0.000000 0.000000
									}
								}
							}
						}
					}
				}
			}
		}
	}
}
MOTION
Frames: 12
Frame Time: 0.016667
0.237870 17.426200 -5.666960 -1.066498 -1.007625 5.425570 -15.333795 12.855445 3.005062 0.196872 -1.032919 -8.760190 -10.540528 5.082993 4.529707 -0.189689 4.142816 3.405521 0.045710 -0.312670 0.021950 18.230202 -10.380318 2.868420 -5.957044 0.372391 -8.628599 11.630131 -4.435127 2.696787 -0.056506 -3.876505 3.190944 -0.062040 0.559430 0.223730 -3.279349 -1.893997 -7.146663 3.400610 1.828248 2.600525 1.216968 1.272247 10.489197 0.411211 -1.164307 -9.193565 -5.257572 2.320841 37.789557 -1.409470 0.445960 10.651360 13.484477 11.216736 4.000110 -13.136201 7.516861 -1.477879 75.302757 -48.343314 -30.342470 -4.329665 3.173998 0.037900 0.435320 -0.409380 0.126980 -13.674253 -9.958459 4.591958 16.310047 -18.610573 -7.976345 -88.864609 50.038465 -39.086442 2.147071 -1.774668 -0.210200 0.076880 0.145220 -0.095980 
0.234410 17.404020 -5.677420 -1.158429 -0.861838 5.908201 -15.351112 12.871220 3.016143 0.378809 -1.161032 -9.435217 -10.758589 5.141336 4.887342 -0.164660 4.085733 3.421811 0.065470 -0.273590 0.036560 18.197174 -10.343364 2.943868 -6.031882 0.432824 -8.635338 12.228566 -4.324254 1.834365 -0.078216 -3.881926 3.200494 -0.055780 0.532130 0.209820 -3.203131 -1.939318 -7.246023 2.974297 1.882452 3.338233 1.815303 1.324068 8.486201 0.575081 -1.005711 -8.996459 -4.864012 1.903381 37.413949 -1.896010 0.487710 10.731730 12.022688 11.510034 3.657973 -15.520465 5.215734 -1.153851 84.348226 -39.966154 -29.865992 -4.357976 3.206388 0.028590 0.421050 -0.390700 0.138000 -12.440183 -10.146560 4.344771 17.956121 -16.251316 -7.537414 -94.350691 41.826438 -37.415233 2.243015 -2.019115 -0.190490 0.071750 0.112140 -0.088800 
0.227150 17.375890 -5.688560 -1.342066 -1.488322 6.509674 -15.340831 12.824220 3.015717 0.674369 -1.260132 -10.008262 -11.306700 5.239842 5.076316 -0.151507 4.094127 3.436347 0.055310 -0.257070 0.008350 18.197946 -10.284503 3.056341 -6.349202 0.547819 -8.577547 13.476087 -4.216937 0.459426 -0.109266 -3.970692 3.202624 -0.052080 0.560210 0.195860 -3.211865 -1.895853 -7.351483 2.998243 1.891332 3.839541 1.666290 1.395359 6.253614 0.760241 -1.070434 -8.825424 -4.643576 2.412227 36.846269 -2.428160 1.494150 11.200400 9.669696 10.713129 3.136808 -17.278272 3.306362 -1.107106 95.014898 -27.572726 -25.378519 -4.387728 3.292302 0.023320 0.441320 -0.390310 0.167350 -10.427141 -9.033986 4.154830 20.157269 -12.339049 -7.212554 -101.165680 31.295109 -33.433029 2.273707 -2.268868 -0.202070 0.101130 0.101180 -0.074310 
0.216310 17.346450 -5.712260 -1.483833 -1.633447 7.206080 -15.328907 12.763019 3.046254 0.993517 -1.484945 -10.861387 -11.900847 5.254046 5.084032 -0.131786 4.057902 3.440630 0.088720 -0.213420 0.037630 18.194605 -10.233288 3.182775 -6.480094 0.688955 -8.640140 14.384092 -3.985146 -1.003669 -0.153685 -4.018511 3.178766 -0.040220 0.528950 0.205300 -3.219792 -1.824747 -7.516258 3.061076 1.850345 4.577001 1.590377 1.439625 3.442931 0.962498 -1.098287 -8.700601 -4.430842 2.582800 36.581909 -3.336850 2.359210 11.418910 7.345377 9.424275 2.575656 -18.549229 1.079349 -1.123775 105.043103 -17.000510 -18.773859 -4.344058 3.418909 0.023140 0.429350 -0.360040 0.185140 -8.473646 -7.463645 3.932532 22.373699 -8.468117 -7.052251 -109.376362 21.247610 -27.557733 2.303697 -2.489094 -0.180210 0.078660 0.061840 -0.070430 
0.204280 17.315810 -5.733780 -1.466505 -1.546851 8.138949 -15.298866 12.650792 3.088931 1.020075 -1.765073 -11.738443 -12.338685 5.109910 4.594131 -0.102221 3.978285 3.472899 0.114280 -0.165030 0.033610 18.215544 -10.217633 3.269566 -6.723478 0.862437 -9.196806 15.190762 -3.798631 -1.849442 -0.164218 -4.065398 3.165238 -0.021460 0.536210 0.215320 -3.294038 -1.630942 -7.627199 3.134902 1.815269 4.858757 1.398586 1.511507 1.009900 0.830798 -1.226222 -8.609868 -4.240157 2.617483 35.413260 -3.493510 2.486510 12.126260 5.704073 7.876505 2.243114 -20.234301 -1.114876 -1.335303 115.174842 -8.607640 -11.339155 -4.303322 3.569717 -0.020530 0.444110 -0.361340 0.214260 -6.618340 -5.596804 3.742738 25.016319 -4.874376 -6.938862 -119.089285 12.746601 -21.036179 2.290209 -2.697272 -0.151840 0.059080 0.027500 -0.042210 
0.189280 17.289240 -5.764300 -1.480831 -1.280498 9.179440 -15.272547 12.530212 3.128430 1.011071 -2.044657 -12.518569 -12.669739 4.907309 3.758553 -0.078559 3.956246 3.538313 0.046750 -0.218210 -0.024340 18.243936 -10.198449 3.317522 -6.671894 1.058844 -10.145330 15.868373 -3.648089 -2.230650 -0.108027 -4.096085 3.185191 -0.030210 0.634570 0.193210 -3.378041 -1.441785 -7.678283 3.385916 1.584767 4.536730 1.065644 1.379284 -0.691011 0.807892 -1.287318 -8.684422 -3.925650 2.820032 34.155701 -4.280170 3.164490 14.961200 4.776056 5.659149 2.355249 -22.629789 -2.611646 -2.086758 125.465065 -1.739929 -2.778385 -4.317607 3.688744 -0.100520 0.519830 -0.428310 0.243810 -5.721519 -3.239196 3.552219 28.096487 -1.214771 -7.170827 -129.097478 4.623427 -10.615775 2.285999 -2.916906 -0.192940 0.092170 0.028330 -0.006850 
0.171800 17.292860 -5.802410 -1.685280 -1.245299 9.650693 -15.251927 12.484792 3.183811 1.285562 -2.253276 -13.179814 -13.072436 4.820032 3.433365 -0.109584 4.038961 3.531079 -0.040440 -0.308410 -0.134180 18.255066 -10.226307 3.332140 -6.037748 1.223813 -10.792083 15.667056 -3.572802 -2.073255 -0.048247 -4.051205 3.213548 -0.058530 0.754880 0.209140 -3.421307 -1.327332 -7.755210 3.564934 1.888547 4.687293 0.890580 1.867004 -2.431569 0.574138 -1.259066 -8.621639 -4.038630 2.804692 35.359780 -3.339100 1.646120 16.527400 4.179420 3.090844 2.765220 -25.987865 -5.799780 -1.804067 137.170606 3.528239 7.249270 -4.362260 3.835024 -0.133500 0.587800 -0.496540 0.240470 -4.682836 -0.714524 2.747132 30.065796 1.121439 -8.643253 -137.388427 -2.436704 5.057187 2.287679 -3.096512 -0.226510 0.142660 0.121360 0.023840 
0.146450 17.302860 -5.845310 -1.664262 -2.193040 9.664766 -15.200460 12.483019 3.208426 1.200276 -2.477495 -13.745229 -13.004147 4.821548 3.957750 -0.159362 4.049064 3.519954 -0.041040 -0.310750 -0.187880 18.294519 -10.254917 3.344558 -5.825813 1.326468 -11.508302 15.558319 -3.521736 -1.778436 -0.020221 -3.991614 3.221965 -0.039530 0.811250 0.215560 -3.546140 -1.291849 -7.797707 4.059700 1.837248 5.252775 -0.190473 2.454676 -3.222272 -0.052386 -1.767100 -8.335369 -5.233931 3.647489 36.430484 -0.660860 -0.100040 16.242810 2.885664 0.880168 3.366272 -26.436494 -7.778309 -1.312969 143.339777 5.272085 11.832176 -4.352817 3.930576 -0.131500 0.595990 -0.528620 0.248850 -2.293529 1.574341 1.596923 30.726220 2.652893 -10.137728 -144.935655 -5.495551 16.505067 2.268359 -3.272755 -0.239410 0.172330 0.165320 0.042380 
0.124530 17.310990 -5.873910 -2.010548 -3.092635 10.275699 -15.198204 12.494056 3.269399 1.770629 -2.647759 -14.407814 -13.700617 4.890365 3.946299 -0.176582 4.155249 3.484018 -0.089620 -0.368510 -0.226480 18.286172 -10.230645 3.349952 -5.013081 1.567759 -12.762676 15.455204 -3.457826 -1.404693 0.039316 -3.859643 3.261958 -0.054560 0.857790 0.216070 -3.524773 -1.349551 -7.868155 3.977791 1.713323 5.518371 -0.565363 2.576438 -4.944394 0.057244 -1.308067 -8.218928 -4.397510 4.206502 36.750893 -0.267940 -0.106240 16.938420 3.359557 -0.157122 4.580094 -28.539164 -8.380814 -0.423066 147.235211 5.120097 11.199943 -4.376537 3.941816 -0.141520 0.625890 -0.564730 0.232910 -2.965783 2.020773 -0.152086 34.192268 5.907207 -11.165948 -148.806559 -6.828691 27.129166 2.319849 -3.354949 -0.267990 0.189450 0.211990 0.042080 
0.115400 17.321100 -5.915620 -2.230003 -2.054794 9.179693 -15.259168 12.539997 3.234359 2.555698 -2.399167 -13.828225 -13.928925 4.952261 3.689301 -0.209992 4.279546 3.429042 -0.032630 -0.323440 -0.163370 18.250558 -10.184859 3.272254 -4.461343 1.385044 -11.486710 14.592648 -3.517956 -1.256566 0.009281 -3.885660 3.240888 -0.014110 0.819600 0.238530 -3.393821 -1.554735 -7.776051 3.789655 2.264031 6.110967 0.061707 2.852481 -1.642728 0.604216 -0.722059 -8.102665 -3.393120 3.162500 35.412826 -1.559050 -0.257060 14.340040 -0.852575 -2.217035 5.043461 -24.793306 -9.810921 1.027885 145.567427 3.397484 2.421980 -4.358873 3.798641 -0.120560 0.617770 -0.546430 0.223290 0.286631 3.639694 -0.087653 29.067280 5.220673 -11.566107 -147.706175 -6.997892 24.771821 2.240770 -3.388737 -0.261580 0.187360 0.201460 0.012640 
0.106620 17.324240 -5.946770 -2.033360 -1.050848 8.320790 -15.247848 12.481968 3.183483 2.787089 -2.227946 -13.267907 -14.274073 5.095783 3.803140 -0.184025 4.320616 3.413199 0.083500 -0.165040 -0.120330 18.285255 -10.231455 3.201349 -4.536564 1.165058 -10.765524 14.169156 -3.607001 -0.813800 -0.016459 -3.968273 3.216330 0.086850 0.794280 0.238320 -3.472370 -1.415044 -7.635200 3.825006 2.234312 6.578860 0.470887 2.601752 1.561980 0.028289 -1.112774 -7.632209 -3.608681 2.526996 32.527729 -1.105390 -0.847820 11.612690 -0.513435 -1.090008 4.301309 -23.490818 -12.987326 1.871369 139.359857 1.806255 -3.434162 -4.358320 3.755695 -0.173240 0.613180 -0.544570 0.266690 0.955894 2.969068 0.264485 26.249852 7.423486 -9.047228 -144.213056 -4.987065 14.334769 2.133276 -3.375069 -0.218690 0.178830 0.128780 0.031050 
0.089060 17.326870 -5.972850 -1.651962 -0.070673 7.795980 -15.275041 12.460824 3.135686 2.838625 -2.097829 -13.018305 -14.415625 5.217199 3.964491 -0.232703 4.395655 3.398308 0.145110 -0.089550 -0.080960 18.281065 -10.227960 3.132354 -4.752317 1.046277 -10.502467 14.087667 -3.742740 -0.400036 -0.036586 -4.032612 3.187829 0.159520 0.801060 0.249020 -3.436716 -1.410055 -7.487611 3.001793 2.220234 6.808271 1.362694 2.153191 4.243445 -0.338294 -1.128122 -7.119684 -3.161905 1.980208 29.843602 -1.937580 -0.359310 9.175460 0.580935 1.343871 2.978283 -22.181637 -15.356875 2.406194 131.389992 -1.412276 -9.318610 -4.409780 3.658681 -0.173140 0.634540 -0.542890 0.291270 0.604875 0.743884 0.936969 24.462749 8.516961 -6.094865 -138.621691 -0.381279 -1.947835 1.994154 -3.194433 -0.233760 0.206030 0.102690 0.018050 
